<svg xmlns="http://www.w3.org/2000/svg" viewBox="0 0 512 512" role="img" aria-label="LINCOT logo">
  <defs>
  <linearGradient id="bg" x1="0%" y1="0%" x2="100%" y2="100%">
    <stop offset="0%" stop-color="#1e88e5"/>
    <stop offset="100%" stop-color="#26c6da"/>
  </linearGradient>
  </defs>
  <circle cx="256" cy="256" r="240" fill="url(#bg)"/>
  <ellipse cx="256" cy="290" rx="120" ry="140" fill="#111827"/>
  <ellipse cx="256" cy="250" rx="95" ry="110" fill="#fff"/>
  <ellipse cx="256" cy="255" rx="70" ry="82" fill="#111827"/>
  <circle cx="220" cy="220" r="16" fill="#fff"/>
  <circle cx="292" cy="220" r="16" fill="#fff"/>
  <circle cx="224" cy="224" r="7" fill="#111827"/>
  <circle cx="296" cy="224" r="7" fill="#111827"/>
  <path d="M236 250c10 12 30 12 40 0" fill="none" stroke="#fff" stroke-width="8" stroke-linecap="round"/>
  <path d="M170 170c-30 10-45 35-45 60" fill="none" stroke="#111827" stroke-width="24" stroke-linecap="round"/>
  <path d="M342 170c30 10 45 35 45 60" fill="none" stroke="#111827" stroke-width="24" stroke-linecap="round"/>
  <circle cx="256" cy="330" r="34" fill="#ef4444" opacity="0.95"/>
  <circle cx="256" cy="330" r="14" fill="#fff"/>
  <path d="M256 346v44" stroke="#fff" stroke-width="10" stroke-linecap="round"/>
  <path d="M256 390l-18 24 18-8 18 8z" fill="#fff"/>
  <circle cx="256" cy="190" r="44" fill="none" stroke="#fff" stroke-width="8" opacity="0.9"/>
  <path d="M256 146v12M212 190h12M288 190h12M228 156l8 8M284 156l-8 8" stroke="#fff" stroke-width="8" stroke-linecap="round"/>
</svg>
